<svg width="15" height="15" viewBox="0 0 15 15" fill="none" xmlns="http://www.w3.org/2000/svg">
<path d="M1.875 1.25V5H5.625" stroke="white" stroke-linecap="round" stroke-linejoin="round"/>
<path d="M13.125 7.5C13.124 6.41457 12.809 5.35261 12.218 4.44221C11.6269 3.53181 10.7851 2.81185 9.79406 2.36918C8.803 1.9265 7.70503 1.78003 6.63259 1.94741C5.56014 2.11479 4.55903 2.58888 3.75 3.3125L1.875 5" stroke="white" stroke-linecap="round" stroke-linejoin="round"/>
<path d="M13.125 13.75V10H9.375" stroke="white" stroke-linecap="round" stroke-linejoin="round"/>
<path d="M1.875 7.5C1.87599 8.58543 2.191 9.64739 2.78203 10.5578C3.37307 11.4682 4.21488 12.1881 5.20594 12.6308C6.197 13.0735 7.29497 13.22 8.36741 13.0526C9.43986 12.8852 10.441 12.4111 11.25 11.6875L13.125 10" stroke="white" stroke-linecap="round" stroke-linejoin="round"/>
</svg>
